<?xml version="1.0" encoding="UTF-8"?>
<svg width="20" height="20" version="1.1" viewBox="0 0 20 20" xml:space="preserve" xmlns="http://www.w3.org/2000/svg"><g transform="matrix(1,0,0,-1,0,20)" fill="none" stroke="#fff"><rect transform="matrix(0,-1,-1,0,0,0)" x="-19" y="-19" width="18" height="18" rx="3" ry="3" stroke-dashoffset="6.81" stroke-width="2" style="paint-order:stroke fill markers"/><g transform="rotate(45 14 10.3)"><path d="m0 13h22" stroke-width="2"/><g><path d="m15.7 21.6 0.763-9.55"/><path d="m13.6 22.7 0.877-10.7"/><path d="m20.2 16.2 0.343-4.13"/><path d="m18 19.1 0.591-7.09"/><path d="m11.5 23.9 0.991-11.8"/><path d="m9.53 23.4 0.934-11.4"/><path d="m7.64 22 0.839-9.96"/><path d="m5.81 20.8 0.667-8.73"/><path d="m4.03 19 0.458-6.95"/><path d="m2.21 17.3 0.286-5.26"/></g></g></g></svg>
