<?xml version="1.0" encoding="UTF-8"?>
<svg width="18" height="18" version="1.1" viewBox="0 0 192 192" xml:space="preserve" xmlns="http://www.w3.org/2000/svg"><g transform="matrix(2.6667 0 0 2.6667 -37.333 -37.333)" fill="#fff"><g fill="#fff"><path d="m26 66h12v-8h-12v-16h12v-8h-12a8 8 0 0 0-8 8v16a8 8 0 0 0 8 8z"/><path d="m74 34h-12v8h12v16h-12v8h12a8 8 0 0 0 8-8v-16a8 8 0 0 0-8-8z"/><path d="m58 26h4v-8h-4a11.94 11.94 0 0 0-8 3.08 11.94 11.94 0 0 0-8-3.08h-4v8h4a4 4 0 0 1 4 4v40a4 4 0 0 1-4 4h-4v8h4a11.94 11.94 0 0 0 8-3.08 11.94 11.94 0 0 0 8 3.08h4v-8h-4a4 4 0 0 1-4-4v-40a4 4 0 0 1 4-4z"/></g></g></svg>
