<?xml version="1.0" encoding="UTF-8"?>
<svg width="32" height="32" version="1.1" viewBox="0 0 8.47 8.47" xmlns="http://www.w3.org/2000/svg">
 <g fill="#fff" stroke-width=".353">
  <path d="m6.03 4.03-2.5-1.72c-0.156-0.0937-0.375 0-0.375 0.187v3.44c0 0.219 0.219 0.281 0.375 0.187l2.5-1.69c0.156-0.0937 0.156-0.312 0-0.406z"/>
  <path d="m4.22 0c2.34 0 4.25 1.91 4.25 4.22 0 2.34-1.91 4.25-4.25 4.25-2.31 0-4.22-1.91-4.22-4.25 0-2.31 1.91-4.22 4.22-4.22zm0 0.562c-2.03 0-3.66 1.62-3.66 3.66 0 2.03 1.62 3.69 3.66 3.69 2.03 0 3.69-1.66 3.69-3.69 0-2.03-1.66-3.66-3.69-3.66z"/>
 </g>
</svg>
